<svg xmlns="http://www.w3.org/2000/svg" viewBox="0 0 200 200" width="200" height="200">
  <defs>
    <linearGradient id="grad1" x1="0%" y1="0%" x2="100%" y2="100%">
      <stop offset="0%" style="stop-color:#0F9D58;stop-opacity:1" />
      <stop offset="100%" style="stop-color:#0B8043;stop-opacity:1" />
    </linearGradient>
    <linearGradient id="grad2" x1="0%" y1="0%" x2="100%" y2="0%">
      <stop offset="0%" style="stop-color:#FF9900;stop-opacity:1" />
      <stop offset="100%" style="stop-color:#FF7700;stop-opacity:1" />
    </linearGradient>
  </defs>
  
  <!-- Background circle -->
  <circle cx="100" cy="100" r="95" fill="url(#grad1)" />
  
  <!-- S3 Bucket representation -->
  <path d="M 60 80 L 60 120 L 100 135 L 140 120 L 140 80 L 100 65 Z" fill="url(#grad2)" opacity="0.9"/>
  <path d="M 60 80 L 100 95 L 140 80 L 100 65 Z" fill="#FFB84D"/>
  
  <!-- Helm wheel -->
  <g transform="translate(100, 100) scale(0.4)">
    <circle cx="0" cy="0" r="35" fill="white" opacity="0.95"/>
    <path d="M 0,-35 L 8,-10 L 0,-15 L -8,-10 Z" fill="#0F1689"/>
    <path d="M 30.31,-17.5 L 3,5 L 7,3 L 5,-3 Z" fill="#0F1689"/>
    <path d="M 30.31,17.5 L 3,-5 L 5,3 L 7,-3 Z" fill="#0F1689"/>
    <path d="M 0,35 L 8,10 L 0,15 L -8,10 Z" fill="#0F1689"/>
    <path d="M -30.31,17.5 L -3,-5 L -7,3 L -5,-3 Z" fill="#0F1689"/>
    <path d="M -30.31,-17.5 L -3,5 L -5,3 L -7,-3 Z" fill="#0F1689"/>
    <circle cx="0" cy="0" r="8" fill="#0F1689"/>
  </g>
  
  <!-- Metrics/Chart indicator -->
  <g transform="translate(145, 55)">
    <rect x="0" y="10" width="6" height="15" fill="white" rx="1"/>
    <rect x="8" y="5" width="6" height="20" fill="white" rx="1"/>
    <rect x="16" y="0" width="6" height="25" fill="white" rx="1"/>
  </g>
</svg>

